{"title":"Animal Kingdom US S01E07 720p WEB-DL HEVC 2CH x265","uid":15557797,"size":391143147,"categoryP":"video","categoryS":"hd___tv_shows","magnet":"?xt=urn:btih:27bc0c143d60a642979846569daa3232c51d2190&amp;dn=Animal+Kingdom+US+S01E07+720p+WEB-DL+HEVC+2CH+x265&amp;tr=udp%3A%2F%2Ftracker.leechers-paradise.org%3A6969&amp;tr=udp%3A%2F%2Fzer0day.ch%3A1337&amp;tr=udp%3A%2F%2Fopen.demonii.com%3A1337&amp;tr=udp%3A%2F%2Ftracker.coppersurfer.tk%3A6969&amp;tr=udp%3A%2F%2Fexodus.desync.com%3A6969","seeders":1,"leechers":0,"uploader":"nayhtut","files":1,"time":1471088339,"description":"[Screenshots]\r\n \nhttps://s10.postimg.org/tm504rxvt/Animal_Kingdom_US_S01_E07_Goddamn_Animals_720p_WE.jpg \nhttps://s10.postimg.org/xjs9u6kp5/Animal_Kingdom_US_S01_E07_Goddamn_Animals_720p_WE.jpg\r\n\r\n   \r\nSource: Animal Kingdom US S01E07 Goddamn Animals 1080p WEB.DL DD5.1 H.264 R2D2 (1.91 GB)\r\n\r\n\r\n__--__--__--__--__--__--__--__--__--__--__--__--__--\r\n\r\n\r\nComplete name                            : Animal.Kingdom.US.S01E07.Goddamn.Animals.720p.WEB-DL.HEVC.2CH.x265.mkv\r\nFormat                                   : Matroska\r\nFormat version                           : Version 4 / Version 2\r\nFile size                                : 373 MiB\r\nDuration                                 : 50mn 10s\r\nOverall bit rate                         : 1 040 Kbps\r\nWriting application                      : Lavf57.25.100\r\nWriting library                          : Lavf57.25.100\r\n\r\nVideo\r\n\r\nID                                       : 1\r\nFormat                                   : V_MPEGH/ISO/HEVC\r\nCodec ID                                 : V_MPEGH/ISO/HEVC\r\nDuration                                 : 50mn 10s\r\nBit rate                                 : 827 Kbps\r\nWidth                                    : 1 280 pixels\r\nHeight                                   : 718 pixels\r\nDisplay aspect ratio                     : 16:9\r\nFrame rate                               : 25.000 fps\r\nBits/(Pixel*Frame)                       : 0.036\r\nStream size                              : 297 MiB (80%)\r\nWriting library                          : Lavc57.48.101 libx265\r\nLanguage                                 : English\r\nDefault                                  : Yes\r\nForced                                   : No\r\nDURATION                                 : 00:50:10.051000000\r\nNUMBER_OF_FRAMES                         : 72168\r\nNUMBER_OF_BYTES                          : 1901888266\r\n_STATISTICS_WRITING_APP                  : mkvmerge v7.2.0 ('On Every Street') 64bit built on Sep 13 2014 15:52:10\r\n_STATISTICS_WRITING_DATE_UTC             : 2016-07-20 18:06:18\r\n_STATISTICS_TAGS                         : BPS DURATION NUMBER_OF_FRAMES NUMBER_OF_BYTES\r\n\r\nAudio\r\n\r\nID                                       : 2\r\nFormat                                   : AC-3\r\nFormat/Info                              : Audio Coding 3\r\nMode extension                           : CM (complete main)\r\nFormat settings, Endianness              : Big\r\nCodec ID                                 : A_AC3\r\nDuration                                 : 50mn 10s\r\nBit rate mode                            : Constant\r\nBit rate                                 : 192 Kbps\r\nChannel(s)                               : 2 channels\r\nChannel positions                        : Front: L R\r\nSampling rate                            : 48.0 KHz\r\nBit depth                                : 16 bits\r\nCompression mode                         : Lossy\r\nStream size                              : 68.9 MiB (18%)\r\nWriting library                          : Lavc57.24.102 ac3\r\nLanguage                                 : English\r\nDefault                                  : Yes\r\nForced                                   : No\r\nDURATION                                 : 00:50:10.079000000\r\nNUMBER_OF_FRAMES                         : 94062\r\nNUMBER_OF_BYTES                          : 144479232\r\n_STATISTICS_WRITING_APP                  : mkvmerge v7.2.0 ('On Every Street') 64bit built on Sep 13 2014 15:52:10\r\n_STATISTICS_WRITING_DATE_UTC             : 2016-07-20 18:06:18\r\n_STATISTICS_TAGS                         : BPS DURATION NUMBER_OF_FRAMES NUMBER_OF_BYTES\r\n\r\nText\r\n\r\nID                                       : 3\r\nFormat                                   : ASS\r\nCodec ID                                 : S_TEXT/ASS\r\nCodec ID/Info                            : Advanced Sub Station Alpha\r\nCompression mode                         : Lossless\r\nWriting library                          : Lavc57.48.101 ssa\r\nLanguage                                 : English\r\nDefault                                  : No\r\nForced                                   : No\r\nDURATION                                 : 00:49:41.661000000\r\nNUMBER_OF_FRAMES                         : 900\r\nNUMBER_OF_BYTES                          : 35564\r\n_STATISTICS_WRITING_APP                  : mkvmerge v7.2.0 ('On Every Street') 64bit built on Sep 13 2014 15:52:10\r\n_STATISTICS_WRITING_DATE_UTC             : 2016-07-20 18:06:18\r\n_STATISTICS_TAGS                         : BPS DURATION NUMBER_OF_FRAMES NUMBER_OF_BYTES\r\n\r\n__--__--__--__--__--__--__--__--__--__--__--__--__--\r\n\r\n\r\nIMDb: http://www.imdb.com/title/tt5574490\r\n\r\n\r\n__--__--__--__--__--__--__--__--__--__--__--__--__--\r\n\r\n\r\nAfter adding torrent with magnet link,\r\n\r\nplease add this  following trackers list to the torrent for better seeds.\r\n\r\n\r\nudp://tracker.coppersurfer.tk:6969/announce\r\n\r\nudp://tracker.opentrackr.org:1337/announce\r\n \nhttp://tracker.baravik.org:6970/announce\r\n \nhttp://tracker2.wasabii.com.tw:6969/announce\r\n\r\nudp://9.rarbg.me:2710/announce\r\n\r\n\r\n__--__--__--__--__--__--__--__--__--__--__--__--__--\r\n\r\n\r\nEnjoy!","torrent":{"xt":"urn:btih:27bc0c143d60a642979846569daa3232c51d2190","amp;dn":"Animal+Kingdom+US+S01E07+720p+WEB-DL+HEVC+2CH+x265","amp;tr":["udp%3A%2F%2Ftracker.leechers-paradise.org%3A6969","udp%3A%2F%2Fzer0day.ch%3A1337","udp%3A%2F%2Fopen.demonii.com%3A1337","udp%3A%2F%2Ftracker.coppersurfer.tk%3A6969","udp%3A%2F%2Fexodus.desync.com%3A6969"],"infoHash":"27bc0c143d60a642979846569daa3232c51d2190","infoHashBuffer":{"type":"Buffer","data":[39,188,12,20,61,96,166,66,151,152,70,86,157,170,50,50,197,29,33,144]},"announce":[],"urlList":[]}}